<svg viewBox="0 0 18.06 32.05" xmlns="http://www.w3.org/2000/svg"><path d="m15.69 32.05h-13.32a2.38 2.38 0 0 1 -2.37-2.37v-27.31a2.38 2.38 0 0 1 2.37-2.37h13.32a2.39 2.39 0 0 1 2.37 2.37v27.31a2.39 2.39 0 0 1 -2.37 2.37z" fill="none"/><g fill="#fff"><path d="m15.69 30.55a.88.88 0 0 0 .87-.87v-27.31a.88.88 0 0 0 -.87-.87h-13.32a.88.88 0 0 0 -.87.87v27.31a.88.88 0 0 0 .87.87zm0 1.5h-13.32a2.38 2.38 0 0 1 -2.37-2.37v-27.31a2.39 2.39 0 0 1 2.37-2.37h13.32a2.39 2.39 0 0 1 2.37 2.37v27.31a2.39 2.39 0 0 1 -2.37 2.37z"/><circle cx="9.03" cy="27.27" r="1.92"/><path d="m13.77 4.72h-9.48c-.46 0-.9-.26-.9-.7a.82.82 0 0 1 .9-.71h9.48a.82.82 0 0 1 .9.71c0 .44-.34.7-.9.7z"/></g><path d="m2.48 6.09h13.09v18.51h-13.09z" fill="none"/><path d="m3.23 6.84h11.59v17h-11.59z" fill="none" stroke="#fff" stroke-width="1.5"/></svg>