<svg viewBox="0 0 22.59 29.46" xmlns="http://www.w3.org/2000/svg"><path d="m6.63 22.83c-1.79-2.61-3-4.26-3.57-5.22a12.29 12.29 0 0 1 -1.65-3.3 10.56 10.56 0 0 1 -.41-3 10 10 0 0 1 1.37-5.23 9.59 9.59 0 0 1 3.71-3.71 11 11 0 0 1 5.22-1.37 10 10 0 0 1 5.22 1.37 9.56 9.56 0 0 1 3.7 3.71 11 11 0 0 1 1.38 5.22 10.3 10.3 0 0 1 -.42 3 17.25 17.25 0 0 1 -1.65 3.3c-.54 1-1.78 2.61-3.56 5.22l-3.57 5.09a1.12 1.12 0 0 1 -1.1.55 1.12 1.12 0 0 1 -1.1-.55c-.96-1.37-2.06-3.02-3.57-5.08zm7.69-8.51a4.3 4.3 0 0 0 0-6 4 4 0 0 0 -3.02-1.32 4 4 0 0 0 -3 1.24 4.3 4.3 0 0 0 0 6 4 4 0 0 0 3 1.23 4 4 0 0 0 3.02-1.15z" fill="none" stroke="#fff" stroke-width="2"/></svg>